<?xml version="1.0" encoding="utf-8"?>
<!-- Generator: Adobe Illustrator 24.0.1, SVG Export Plug-In . SVG Version: 6.00 Build 0)  -->
<svg version="1.1" id="Capa_1" xmlns="http://www.w3.org/2000/svg" xmlns:xlink="http://www.w3.org/1999/xlink" x="0px" y="0px"
	 viewBox="0 0 84 73" style="enable-background:new 0 0 84 73;" xml:space="preserve">
<g>
	<g>
		<path d="M65.8,6.7H17.5c-4.3,0-7.8,4.3-7.8,9.6V57c0,5.3,3.5,9.6,7.8,9.6h48.3c4.3,0,7.8-4.3,7.8-9.6V16.3
			C73.7,11,70.2,6.7,65.8,6.7z M70.1,57c0,2.9-1.9,5.2-4.3,5.2H17.5c-2.3,0-4.3-2.3-4.3-5.2V16.3c0-2.9,1.9-5.2,4.3-5.2h48.3
			c2.3,0,4.3,2.3,4.3,5.2L70.1,57L70.1,57z"/>
		<path d="M50,36.1l15.7-17.3c0.7-0.8,0.8-2.2,0.1-3.1c-0.7-0.9-1.8-1-2.5-0.2L41.7,39.4l-4.2-4.6c0,0,0,0,0,0
			c-0.1-0.1-0.2-0.2-0.3-0.3L20,15.6c-0.7-0.8-1.9-0.7-2.5,0.2c-0.7,0.9-0.6,2.3,0.1,3.1l15.8,17.4L17.7,54.5
			c-0.7,0.8-0.8,2.2-0.1,3.1c0.4,0.5,0.8,0.7,1.3,0.7c0.4,0,0.9-0.2,1.2-0.6l16-18.5l4.3,4.8c0.3,0.4,0.8,0.6,1.2,0.6
			c0.4,0,0.9-0.2,1.2-0.6l4.5-4.9l15.9,18.6c0.3,0.4,0.8,0.6,1.2,0.6c0.5,0,0.9-0.2,1.3-0.7c0.7-0.9,0.6-2.3-0.1-3.1L50,36.1z"/>
	</g>
</g>
</svg>
